<svg version="1.1" xmlns="http://www.w3.org/2000/svg" width="1343" height="982"><path d="M 496.5095641486757 831.032641073923 L 1296.2640153611444 31.841332818702654 L 1311.9525756868761 31.43022783085246 L 1311.6706589132527 45.94353977537537 L 510.91776073237884 847.2516217372573 L 512.3254488677869 830.8459395212528 L 497.11911533503235 831.5906500533326 M 511.3255074666559 830.9841902073372 L 1311.6967531101957 31.20729872876484 L 1326.3485665197613 31.158630692192105 L 1326.886829455078 46.28568687078132 L 526.20851372567 846.3150919316748 L 525.945396029668 830.8582917159341 L 511.2761234931802 830.7565300775537 M 481.6871736337678 846.4370535474433 L 1281.3819264434908 46.20386667539697 L 1296.5152469035183 46.16601508116412 L 1296.2624914576265 62.08241273617091 L 496.75589091625153 861.8501797110714 L 496.50317300789845 846.7160758440831 L 481.3232180833482 846.1995070318675 M 526.5859501924218 846.5402068924607 L 1326.7201958262967 47.01434714068739 L 1341.8308462602536 46.32336917988971 L 1341.5062712472181 61.56038398571354 L 541.8616380744642 861.7186154525167 L 540.8802933775579 847.1302986745475 L 526.9097724716512 846.2156853682504 M 481.5933441988187 861.3176951065669 L 1281.7680019333616 61.051511780319515 L 1296.4310063769303 61.44037373063043 L 1295.974432419601 76.37953455903266 L 497.0814309449779 876.3559522324891 L 496.4980999657046 861.9606026247241 L 481.43590906867155 861.2861438233418 M 496.5573798150933 861.0902769184827 L 1296.336432657484 61.345085454249784 L 1311.762945685492 61.31780844934258 L 1311.5581787757385 77.24142202401401 L 511.57558952797126 876.4344035130605 L 511.24045088359173 861.6326714176219 L 496.33051854426947 861.2797642698193 M 511.5156269259223 861.6467840615024 L 1310.6655689669983 61.82069858376383 L 1326.1697989486545 61.724968134489586 L 1326.688823290499 76.17411448909309 L 525.678864295226 876.7297834903657 L 526.4793891524707 861.8059574818703 L 511.5520918803174 861.7699802096062 M 525.6186072258411 861.936940288134 L 1326.7694981322406 61.91829783907042 L 1341.0626798822361 61.67408854223788 L 1341.366466528921 76.88805947570336 L 541.322956933027 876.1054530548073 L 540.709932712561 861.4489826013515 L 525.8307841590556 861.9480062518352 M 481.2702161861723 877.6610839354973 L 1281.3319581809033 76.36171734497225 L 1296.574003610663 76.11956227402811 L 1296.2881625603502 91.56906825817919 L 495.9510477658368 891.1511682425266 L 496.5251322416916 876.1461442444532 L 481.9165974511805 876.5383732715885 M 480.6282961730952 890.9726322382587 L 1281.1810697576839 90.96236876242904 L 1296.5483631795155 91.1382817625265 L 1296.8310733093795 106.68039932606746 L 496.1446310465752 906.9953529071424 L 497.20232972473303 891.4187151038692 L 481.5519385573657 892.1406191715389 M 526.800720873403 890.4779476036509 L 1326.7602384058137 91.70745743110854 L 1342.4460986436748 91.77347609764865 L 1341.7973544113274 106.43841825350182 L 541.5442326392133 906.4695945749564 L 541.4218509759049 891.0762727269426 L 525.640247654504 891.2267100393422 M 495.8351837619136 906.573257156605 L 1296.6650746667858 107.07541134522342 L 1311.3333613787072 106.52215059203672 L 1311.4760454945658 121.41976782016968 L 511.15925032411565 921.850926270903 L 511.32398429932107 906.3561926713717 L 496.2989313546186 906.5910148172459 M 511.0783478089684 907.2299658915115 L 1311.444989380181 106.53051114928792 L 1326.613449813488 106.4323888480352 L 1326.7190391739614 121.47747706509699 L 526.4123787845263 921.802318304932 L 526.6332804303722 906.6833465488999 L 512.113220305736 906.3639143315809" fill="black" stroke="black"></path>
<path d="M 421.4677955931498 832.1270135864755 L 1221.4869479983467 31.51545063444246 L 1236.1338254254417 31.773033179876393 L 1236.3932222623912 46.03878771103541 L 436.7196015811318 845.9115026454572 L 436.7969434661043 831.325678752245 L 421.0825053677854 831.6771583852892 M 436.0512309540671 831.7511751805955 L 1237.0321792027237 31.48360442383421 L 1251.6976101576251 31.928290679114525 L 1251.4712704384647 46.40556419934967 L 451.1902868004368 847.5007938951893 L 451.712772915484 831.670326584679 L 436.15170832864214 831.3112448642838 M 406.31227924823634 846.5867406401773 L 1206.058982751871 46.65553020707989 L 1221.3098574344456 46.27640013025689 L 1221.7956054501321 61.13509773814701 L 421.97231471908185 861.634710024023 L 422.1586936439502 846.7881883950025 L 406.4592167672694 846.8248438823911 M 451.76831315913097 846.3935814331779 L 1250.995278791534 46.140130175940044 L 1267.3073673377712 46.695445669789024 L 1266.2866759553824 61.43932161159705 L 465.72952952254684 862.048377069661 L 466.72803444309596 846.7105449545477 L 451.55427575889644 846.0539150860969 M 406.79322169667387 860.9287714065833 L 1206.6095562194569 61.571880185991176 L 1221.575369560869 61.58721797340081 L 1221.382556484007 76.62118002472448 L 421.2564225036493 876.1710343932887 L 420.6065687483435 860.4786485960499 L 406.4089484696328 861.4245755305865 M 406.32657471281107 876.4631356218977 L 1206.5281585118657 76.2749848218798 L 1221.5866643963745 76.5169944442082 L 1221.507362382701 92.38073113406062 L 421.7602698435743 891.4587422639024 L 420.79245118452013 876.5219878809067 L 406.86106626696164 876.6501381844907 M 406.6388155238524 890.8228644305891 L 1206.6863733304951 91.15166305279331 L 1221.8335102597987 91.06337601841392 L 1221.311530135527 106.67544205271668 L 421.5155602006092 906.7395940185438 L 421.55632049076075 891.8068411010686 L 406.3409147533998 892.0197448634258 M 451.3234488420198 891.2872495527076 L 1251.6443170583923 91.65688344437172 L 1266.6001623728944 91.57754519677678 L 1266.464555372716 106.69700071084321 L 465.6346876815791 906.2609826538545 L 466.89472436307454 891.6956712319536 L 451.38811462545704 891.2909613199263 M 421.3595867859476 906.749361085447 L 1221.7169465637432 106.27244700139863 L 1236.5034196772185 106.41382334278876 L 1236.3858240245845 122.10835678576154 L 436.54393336548935 921.6696132159118 L 436.3054994545956 907.1064286925646 L 421.71916643701314 906.5689890193864 M 436.214934268704 906.7200849587678 L 1236.1770963862598 106.01857647721579 L 1251.6918413770259 106.42295429678211 L 1252.0482108766116 121.71258260043533 L 451.8696282624423 921.2867337526865 L 451.50093995752246 905.991395602555 L 436.256198784559 906.4753924673521" fill="black" stroke="black"></path>
<path d="M 331.79232154852957 831.3261344744027 L 1131.4590328800066 31.280402676121753 L 1146.286498901682 32.213359638167844 L 1146.7649055140112 46.22424224247277 L 346.86049882400255 847.136179550136 L 346.15502233819035 831.9307152737208 L 331.34216481256374 831.1792771724303 M 361.56494291396865 831.8150807669662 L 1161.1799125556909 31.601323989810794 L 1176.2527956921729 31.51149839304844 L 1176.8068996851307 46.824101681238744 L 376.09924886089664 846.2885179785965 L 375.9951345338535 831.1695916805868 L 361.32783500546 831.1882566419278 M 331.73368235360874 846.5951621426843 L 1131.6821093821181 46.6454232018242 L 1146.4174918665574 46.56004964137537 L 1146.2009443702655 61.60721640800671 L 346.0461822691801 862.1953606189668 L 347.37989839126215 845.8144151590535 L 331.66699574865703 846.0493841354361 M 345.9676458575564 846.7135146924253 L 1146.4660012743857 46.81034001864657 L 1162.4087285789496 46.39086835219803 L 1161.562091096859 61.395069093914344 L 361.6765128289164 862.3002625660392 L 361.09851366870186 846.4984998354073 L 345.96012878166835 846.1467818662733 M 376.7945243360033 846.6713519741479 L 1175.8270300103009 46.95270906580879 L 1191.3099395483896 46.83858130878059 L 1190.9558871516228 61.192783418169824 L 391.84771749318065 860.8938117632741 L 391.25093934653387 846.13638419943 L 376.20884871989466 846.2184891720107 M 331.72249995966246 861.302018573183 L 1131.427813434423 61.402288311791835 L 1146.3240665982364 62.0377946055703 L 1146.1629883758515 76.68674199059637 L 345.65317447866875 876.507770851115 L 346.8308835478276 862.0861446229828 L 331.2767589150948 861.7553883502476 M 376.6342491909279 861.7048529687206 L 1175.8985808260718 61.35040583486659 L 1191.3906864939047 61.8692203254476 L 1191.140936523343 76.36847275188268 L 391.24189462030427 876.1614279302161 L 391.5296957841383 861.7942430014559 L 376.9465135106428 861.6464150728375 M 331.6347462598154 876.6382050788785 L 1131.3388452455745 76.36582385586894 L 1146.3067092212555 76.65089933947968 L 1146.514678924289 91.64077305101807 L 346.72995836125136 891.5508826496903 L 346.3359653180854 876.5873670332018 L 331.5591726641377 876.852252082402 M 375.9092774598509 876.8765315072174 L 1177.0245280149402 75.8945395701628 L 1192.0189541328432 76.67555276470148 L 1191.9383271207357 91.86752383571502 L 391.69181230140055 891.0297591257776 L 391.70253120205825 876.905825244645 L 376.8214938884852 876.9270776789236 M 331.76411963163986 891.836201968344 L 1131.7382621517986 91.67596284144474 L 1147.5696635176091 91.89326205270038 L 1147.052157035343 106.35758186930616 L 345.9886885657753 905.9999677388327 L 346.3715182617686 891.7950404064819 L 331.80189578357357 891.9224779315799 M 376.5092980631312 891.7907608662882 L 1176.6973185114232 91.27816728434823 L 1191.23877125471 91.6077350336841 L 1191.9335251375733 106.89736084281094 L 391.2168710449442 906.6842618867288 L 391.57975321873715 891.5382790570093 L 376.96865832582586 890.7116846351329 M 331.82741641398883 906.611255723833 L 1130.5118218437588 106.38847062594698 L 1146.9331121875894 106.39449598964586 L 1146.921555772581 121.10619509622597 L 346.73057018341086 921.6606606928062 L 346.8802015035037 906.1358808736816 L 331.71945836448344 907.2456358936822 M 376.00355657863656 905.8841090577488 L 1176.2257933589412 106.3720078579496 L 1191.567699422106 106.98738145640573 L 1191.5652163586647 121.66714523662642 L 391.63083060509297 921.8818973776449 L 391.73368165951945 906.4556926592517 L 376.3959914911717 906.17358336308" fill="black" stroke="black"></path>
<path d="M 272.2661833014677 831.8737086502548 L 1071.2235944323713 31.314123756437766 L 1086.742658618386 30.80095082550065 L 1086.8695202135002 46.71591271636771 L 287.01730001049674 846.7056184551161 L 286.983579021697 831.6867082384834 L 271.40817556928823 831.0478222728826 M 286.2706426691989 831.6872769826 L 1086.1611630056486 31.258770293532393 L 1101.5814215963765 30.996326568960853 L 1100.8472121823565 47.08745200607984 L 302.1802910338464 846.3758583757314 L 300.99007619005783 831.6647782586509 L 286.6805883707528 831.0130609057892 M 256.03818538062524 846.5474607560063 L 1056.3265995197758 46.39733576800552 L 1071.7614443451084 46.30977809464241 L 1071.6201627398032 61.78550728580444 L 271.75748255911174 861.5497915986855 L 272.2192147490156 846.3395232543389 L 256.95045236756 846.4800948985807 M 301.6891626856716 846.1541226776004 L 1101.5991742599676 47.101947106166676 L 1115.9244348465274 46.2582431778477 L 1116.7904456970045 61.63158851707965 L 316.6112618944868 862.0761732158174 L 316.1405526326044 846.2973509840247 L 301.02082191926786 846.9570890110646 M 256.1038306650334 861.2748441159213 L 1056.413685551765 61.15929101508311 L 1071.8783406782363 61.27193109338623 L 1071.5665079723321 76.96300197754772 L 271.212353200224 876.5890993861782 L 271.33875922612515 861.3400637353417 L 256.60910256604996 861.4324729682259 M 271.7774679332355 862.0489637833844 L 1071.0775161764843 62.17709230618948 L 1086.69817326374 62.03171611118512 L 1086.2537094651382 77.27711675699277 L 286.84796124492664 876.4862834044237 L 286.48571149628646 862.2207903431053 L 271.46980618434264 861.1624220034175 M 287.48371802658846 861.816001150266 L 1086.4406173211473 61.93909065572291 L 1102.1750093619396 61.806747757382595 L 1101.860071422151 76.67537121283806 L 301.6845644310543 876.8360014234939 L 301.28186905937724 861.8944963110877 L 286.637251108648 861.315619773208 M 301.51571599963626 861.5287701818494 L 1101.5255655326202 62.177788905030184 L 1116.0506991882241 61.70260652223919 L 1116.086777791203 76.60821651330559 L 316.72298755144607 876.760454872488 L 316.7860514493139 861.3123056011096 L 301.75133167301635 861.6713953994205 M 256.68909027719195 876.7958176830896 L 1056.854252662001 76.53339473862752 L 1071.5944812536259 76.49586108510357 L 1071.5804637430458 92.00022433790195 L 271.84174215417386 891.8871990071511 L 271.34103524307557 876.5214211437299 L 256.5450048464561 876.8320050723573 M 256.31561525469584 891.2454589047322 L 1056.3440060816185 91.3912464219095 L 1071.4001767490026 92.31671220634757 L 1071.5074693135016 106.24081353285953 L 271.1633223659109 905.9183150338449 L 271.2221429142983 891.6754651473625 L 256.4752199051644 891.0647319619493 M 301.36141112594885 891.263104704053 L 1101.6339522076626 91.6966346076797 L 1116.5764490801348 91.99490364261112 L 1116.5503687773619 106.54620058417106 L 316.3253488875177 906.0364492106029 L 316.40546801719813 891.3797392179868 L 301.63643071881927 891.492292591544 M 271.29886685879194 906.7477045148725 L 1071.691348879859 106.62527460338413 L 1086.6378837556113 106.87280189764328 L 1085.6988720332236 121.54486027120197 L 286.7579484735853 921.6158603074256 L 286.68500201149635 906.4256869496016 L 270.4101454555874 907.0128815936099 M 287.16932855840287 906.0330324090904 L 1086.7136893867166 106.26723050094768 L 1101.8993460846423 106.38079261744178 L 1101.9106864748821 122.15137914629838 L 301.8616569671108 921.6967835136177 L 301.035689019843 906.6794176757521 L 285.68346542204995 906.4483434928098" fill="black" stroke="black"></path>
<path d="M 225.80408589692698 801.7076510721398 L 1025.9095656894544 1.1523461796861056 L 1040.9493984465425 1.8830133219373693 L 1041.4979124105928 16.768540279264357 L 241.46171058251542 816.1454248828389 L 241.15670977365647 801.4164862135049 L 226.2772157924912 800.8541120697673 M 226.7891439293351 831.8679009825971 L 1026.843834859992 31.33313064833999 L 1041.8570299735275 32.027773085827675 L 1041.531719650345 46.080336693444565 L 241.1716999510182 846.9958692297816 L 241.33171882285058 831.1303433919932 L 226.95663074717407 831.855783894611 M 226.66953091129227 846.1105093965073 L 1026.4402748979792 46.5245542088885 L 1041.9925006326305 46.17771643265348 L 1041.0715988646907 61.27517767470249 L 241.10460238152098 861.4605146772456 L 241.64368064262837 846.8882360193929 L 226.99142724353823 846.461165160132 M 226.0644359470205 860.8008810800814 L 1026.106594539426 61.5722088971803 L 1041.726071029869 60.88770426976157 L 1042.2273624921072 76.51706363986966 L 241.4132592523953 876.5744545995723 L 241.91135493413415 860.7722299809873 L 226.3843778376417 861.1892364007583 M 226.88628952301386 876.2494017135136 L 1025.9326886458255 77.141005449398 L 1041.8076760310869 76.37420557239705 L 1041.5835052712885 92.14389229604546 L 241.54225527145468 891.4511293128205 L 241.45794690823305 876.2987572201371 L 226.47955044546904 875.9757059940194 M 225.96264127295987 892.0079634679171 L 1026.08146799297 91.22580439369142 L 1041.4722035202115 91.77009463937566 L 1041.4661194212406 107.01620323587633 L 241.63882084632468 906.9987513757037 L 241.55171255582252 890.9088552201341 L 226.49704452079723 891.8604873418641 M 226.36992932451744 906.4699367351528 L 1026.7197286487271 106.40840843874571 L 1041.3562534417783 106.63796410086707 L 1041.825962810814 121.13631687436691 L 241.309870545838 921.484802593713 L 241.6127558695294 906.4522812958894 L 226.25933373230868 906.8762158802173" fill="black" stroke="black"></path>
<path d="M 166.72750834004216 816.1363565931272 L 966.9461497071309 16.50356134710887 L 982.028480327327 16.70852555854742 L 982.1178732148862 31.38799930742266 L 181.1284389687812 831.5677442369097 L 181.91948467784044 815.8567202942484 L 166.01499543739627 815.9290624574163 M 166.7097010985802 831.4081839426686 L 966.1106599493221 31.520851997004797 L 980.9994629536232 31.080101397558792 L 981.1371030166343 46.462779602160936 L 181.78303364226116 846.1414607961808 L 181.8614974367201 831.6448013076579 L 165.9745352573344 831.4851546552007 M 151.40962643915117 845.9018476239821 L 952.0150048704235 46.43340536104756 L 966.2684586623951 46.7520619536092 L 966.3069452509394 61.62336569347667 L 166.37489318720674 861.7105801801475 L 166.789817878598 846.0716781085664 L 151.65096985231625 846.4281557354822 M 166.51851038274847 846.6887954619216 L 966.8640695548036 46.39899998442536 L 981.7261669611851 45.876229255456906 L 981.3341293256926 62.076878894742435 L 181.35157921070987 861.0671175573066 L 181.36058872629118 846.8838596313461 L 166.60712992284323 847.0487287717548 M 182.10447931475247 846.1338356441071 L 981.5650232124095 46.031741448442176 L 996.32365004373 46.38755057788626 L 996.649445318053 61.22667149940128 L 195.90105101016582 861.2755570256005 L 196.38059895095623 846.6119308497855 L 181.39818460474805 845.9357116922192 M 196.20540639423982 846.2003336967907 L 996.4180088921204 47.35627701053181 L 1011.410872311596 46.601717181678055 L 1011.0293492396665 61.415314947009165 L 211.78528594642347 861.38802903593 L 212.3720547869512 847.0060050652189 L 196.94690270364913 846.2040496923145 M 166.63978435315812 861.334999609191 L 966.5880537214047 62.064425671067056 L 981.0177980624696 61.78289435091415 L 981.8561226724987 76.17276486514209 L 182.03146369538763 876.5957586802837 L 181.36451138019765 861.6384177768006 L 165.31349101902887 861.7320228184034 M 166.61150421897636 876.6104726121698 L 966.4960081089536 76.72550872015415 L 981.620004800799 75.92941331674558 L 981.520536020312 91.48497876977922 L 182.05803287232754 891.6751953970395 L 181.04156299685138 876.6581095242024 L 166.5706273796233 877.2002068143238 M 166.02146483966249 891.733177081817 L 967.0138447951267 91.40684115928627 L 981.2862476304132 91.44129498064035 L 981.3130613972598 106.5015371480755 L 181.71064598434276 906.7224712483461 L 181.07880990416683 890.8802026018894 L 166.7431599154104 891.1669452184794 M 181.8546394032409 905.9506193149385 L 981.4610025562683 106.3549241050423 L 996.3293581904717 106.58523926957264 L 995.6171604011741 121.6294917333206 L 196.23669666773063 920.9983932612972 L 196.23536242071435 906.301867073959 L 182.19531284453478 906.7116668906497" fill="black" stroke="black"></path>
<path d="M 91.87408440716449 831.5443764939342 L 891.7675664412759 31.511641932741327 L 906.0916565619129 31.495272914780344 L 906.2340955199779 45.81397837823886 L 106.43569524459642 845.9448416436514 L 107.1860954447159 831.1077740734994 L 91.80709878811355 831.824389556261 M 106.18780625120046 831.6257647241243 L 906.5529706567843 31.152316387204223 L 921.1620065705371 31.205763399503667 L 922.3579446865377 46.110367318029944 L 121.87208370721324 846.5233502488768 L 121.70999073561113 831.8326416628175 L 106.83343767374042 831.9405933369262 M 76.18502584150482 846.9848891248821 L 875.9887842517253 46.26789460958787 L 891.6340622123107 46.9828221875772 L 891.0656962242856 61.894333404379495 L 91.66879531164894 861.8094158554327 L 91.81539493847981 846.7906789792123 L 76.31551487232598 846.2602559979182 M 121.96434883226611 847.006611748776 L 920.819831473082 46.94431912911068 L 936.1000154768107 46.49097256637265 L 936.1427683668377 61.78390361073741 L 136.4166377112116 861.1609764280204 L 136.0731507848913 846.4248247189241 L 121.58726467123559 846.3419091243877 M 90.5969666975318 861.4406897788199 L 892.2455503866029 61.33540122111185 L 906.6777168178588 61.1568198946577 L 906.2334507009543 76.86034463276917 L 106.71352312150451 876.3501610090235 L 106.08881084299847 861.7864945611134 L 91.69658577071253 860.7799453058506 M 106.27167227846483 861.6378872667111 L 906.445311533326 61.40336998158273 L 921.4196504164651 61.209148707053714 L 921.6910687112003 76.36493654942933 L 121.6886723571237 876.3441499978683 L 122.1228316886926 861.2972766560353 L 107.36531387529845 861.9273637749429 M 122.08855105165638 861.3758460767915 L 921.4933598993315 61.15177830772575 L 936.729785635952 61.19990572457607 L 936.350221386222 77.41085736462355 L 136.56116855923915 875.7420099393961 L 136.60694926961622 861.5921914364709 L 121.06422898570196 861.8206898025113 M 76.17548093866739 877.5041096758312 L 876.7757066166594 76.49266432410525 L 891.3336316456863 76.79182326196258 L 891.7144577156793 91.4525861960226 L 91.4181349114196 891.7478595910723 L 91.3876696022055 876.8507092939919 L 76.19564517005497 877.018433618416 M 122.02166385256409 876.7183796203005 L 921.9275707070594 76.72582911750021 L 936.4353722343021 76.62889168016852 L 936.4985503215725 91.77769479796473 L 136.34817627230177 891.1295379047687 L 137.1804659370694 875.8692169603614 L 121.23839879233924 876.7005882461867 M 76.42341358227928 891.338971182856 L 876.1962111064153 90.83805437185185 L 891.6487899956292 90.78134219221988 L 890.6300700353365 106.34826265897698 L 91.3487212816309 906.489888888666 L 92.31270565456478 892.315549207883 L 76.52819640032675 892.4093688515692 M 121.71390721251048 891.4114101131099 L 920.8597110697743 90.74476505094788 L 937.0123102823595 91.66830370046557 L 936.0761955117298 106.86364372090645 L 136.28536536307053 906.3648753174809 L 136.6426190124692 891.7817218060309 L 121.85550696209927 891.8635399691525 M 91.9145653569213 905.9285423273432 L 892.1520587060862 106.4743598857292 L 906.3293760704189 106.20666421995304 L 907.0632643798174 121.6248245367583 L 106.62176890803487 920.8398292593594 L 106.1843371581106 906.2025646461245 L 91.82740188953046 906.0790077034789 M 107.040831854036 906.3012882441183 L 906.1704262696422 106.31873097620883 L 921.0890846820673 106.91603986239909 L 921.6510004877714 121.48095873400086 L 121.54859423658604 921.2834370473296 L 121.24102257199887 906.5791356757359 L 106.2969012793125 906.5152542415548 M 136.69032486605406 906.4476496822548 L 937.0522023649099 106.40621590514968 L 952.2124246941011 106.17744434791848 L 950.9350555862341 122.28940932514536 L 151.6587548623905 921.1789263421871 L 151.79917339257008 906.9368540923651 L 136.21087856180003 906.5817774833762" fill="black" stroke="black"></path>
<path d="M 16.372438849978607 831.3340713633688 L 816.6254958238558 31.037892182934115 L 831.2783646680182 31.528889399910668 L 831.2898211488042 46.21990283766729 L 32.35349356615159 846.3818175505637 L 31.85926913884345 831.2765504118775 L 16.460431102295637 831.3911301399878 M 31.815910704312856 831.2614973396436 L 832.035965441005 31.114250396576153 L 845.9229982900838 31.828710766727454 L 846.3712877848703 46.2803521984855 L 46.59945459750281 846.8461251022347 L 46.46447634699251 832.4912020682386 L 31.93407847821212 831.3365623746871 M 1.4414988769143025 846.8456321399119 L 801.1437740652167 46.589591081155504 L 816.499633100234 46.37194262064736 L 816.5521912612385 62.25876076909287 L 16.199659086294545 861.5812782781057 L 16.632291522026023 846.7182911927392 L 2.4756909953845088 846.3891948645216 M 46.46576741697987 846.3597259662447 L 846.3553815341608 46.02198528091856 L 861.3622717686973 46.19449615360111 L 862.385835627307 61.27104178266529 L 60.91794689373246 861.7875891439163 L 62.04157349922497 845.8538795549521 L 46.638758944613116 847.0346556540671 M 1.5274362124885432 861.6142169389276 L 802.5742045549406 61.76134709163398 L 816.1295929775097 61.10189685626153 L 816.4316447075445 76.65080046399498 L 16.047434804972983 876.498531214886 L 15.962463012740587 861.0004247256663 L 1.7926670986792856 861.8039150796201 M 46.19223966821326 861.7428414233913 L 845.700552841631 61.72349370215204 L 861.7526630805696 62.54817869933561 L 861.950945380636 76.47030076351814 L 61.23654069907531 876.5000937553002 L 61.051923274067015 861.9016589964077 L 45.75314859055915 862.1554673362659 M 2.3392599953991935 876.3575257070405 L 801.6157076856216 76.62878034872722 L 816.2170427331787 76.47710757391019 L 816.393550811491 92.38310221485108 L 16.5421625799599 891.7280687210182 L 16.324415932507645 877.2564683227486 L 2.004819981029777 876.6893880196496 M 46.9937708415221 875.7440627867577 L 845.7534601445315 76.06485207053868 L 861.455171475216 77.0276658489089 L 861.9315027125746 91.18234708535601 L 61.35150256431597 891.8374999710662 L 62.094714150561714 876.7063873330853 L 46.49812229006526 876.8485541589187 M 1.3930913937105134 891.5986825478931 L 801.4488048049195 92.22992809691982 L 816.7825960765389 91.30664323400515 L 816.0789831557684 106.69405079338571 L 16.1670938387856 906.9792155096807 L 16.93224683912376 891.2877789937468 L 1.4642286295506968 891.4032974595399 M 46.62380296243433 891.3676640166615 L 846.9414560795165 91.60122493571339 L 861.5580932632392 91.09671443196555 L 861.2648699046932 107.2613859253729 L 61.082419400516905 906.46058077407 L 60.698001698580654 891.6339405105448 L 46.57263150982853 891.7916403231874 M 1.635489956185194 906.4361571503686 L 801.3489128724807 106.93346637825982 L 816.073182476918 106.90990092103323 L 816.1465118512723 121.83749704546449 L 16.63278713718892 921.4048917125032 L 16.48732713010424 906.4759419218606 L 1.6767114987214442 905.3992430166563 M 16.514704442547668 906.3196799137437 L 816.383146161361 106.64804648076324 L 831.478710475548 106.08125024411163 L 830.8606594394937 120.87763928217555 L 30.70764001841276 921.3566850180503 L 31.819799436127244 906.9711488905194 L 15.990035824241092 906.8384599636576 M 30.860053002742294 906.4241073729706 L 831.0742984315443 106.4416137803388 L 846.2244309004817 106.02784542412428 L 846.8702594852406 121.05199041646381 L 46.564868030791075 921.1842533910722 L 46.200105376984915 906.2506982327573 L 31.62699747901034 905.9255072757379 M 1.5211487067315475 922.0224336457176 L 801.9487780311972 120.86229779219889 L 816.6602515276176 121.9807287344056 L 816.7140777696035 135.7440131173231 L 16.893994316289113 936.2523068644623 L 16.78728283621276 921.4328089685227 L 1.046033468061476 921.7630471947971 M 1.2551300892732207 936.8969070059852 L 801.6468278815997 136.10867097183802 L 815.9996691690249 136.6517803921265 L 816.742277452589 151.89773461399443 L 16.628804981754175 951.5003315572545 L 16.256472965261267 936.0315403424192 L 1.8992549020182659 936.7365388032101 M 1.2298845817435837 951.2048274794794 L 801.6554667384572 151.0234479459417 L 817.0446472810684 151.83060286618684 L 816.0003680142871 166.9647182804788 L 16.4589778145991 966.2992309816705 L 17.01686513318493 951.3222692801457 L 1.8765968175734893 951.5388277229277 M 1.8292338303383322 966.2649465877657 L 801.7197008472788 166.45013026227662 L 816.7403120049474 166.82959211283253 L 816.8908671440482 181.08793701124887 L 17.01474278179414 981.2065000815003 L 15.881837575268726 966.1259503474614 L 1.741673250016337 965.5325160768531" fill="black" stroke="black"></path>
<path d="M 16.153386121785218 831.5221224047733 L 31.43449831474595 831.4638770570957 L 31.631559044943614 846.3317172284411 L 15.839251621941205 846.2162665132213 L 16.87356235457971 831.0878580302513 M 31.149217917927487 831.7507629059991 L 46.027952892987024 831.2938454443889 L 46.897907626533396 846.6128362439752 L 31.549564941260915 846.762613363693 L 31.785387811519243 831.7027482580014 M 1.0693183391383858 846.4989109941273 L 16.715601855547295 846.29514793425 L 16.236773505413964 861.6593585135824 L 1.1240331835343857 861.3528992464643 L 1.723675512645237 846.8572532957228 M 47.0498347704245 846.0920496857776 L 61.6409133689055 846.0156575471609 L 60.803160375229716 861.3404192308151 L 45.80897904298937 861.8011840192933 L 46.55048535658647 846.5871346937781 M 1.9414630028510969 861.3940803641029 L 16.690993526491415 861.4849574996855 L 16.518889956113725 876.8128869258185 L 1.771996607124522 876.7080698771516 L 1.2797590743378224 861.4113252078605 M 46.427676817641256 861.2353034563574 L 61.189210487169504 861.3623014871529 L 61.98081685687396 876.8229818838785 L 46.5024634118594 876.6556391074729 L 46.73462350699392 861.8678915892959 M 1.9467265313985724 876.4759778935738 L 16.610050406833995 876.4699878566149 L 17.069230850374304 891.1175587203561 L 1.2476607278837677 891.356494214819 L 0.8777969375185326 875.8116807592252 M 47.14009700303477 876.3557970746972 L 61.86958585103375 875.985134153682 L 61.47821814849246 892.0658153422974 L 47.30643651999907 891.1579261537726 L 46.90411362081019 877.0258522130157 M 1.511701853307208 891.5014043799201 L 16.456443941382464 891.9445908717266 L 17.121550224152024 905.950517889996 L 1.3876765964860465 906.8500257346325 L 2.2461049748768427 891.9623681647743 M 46.87107758908539 891.3961217499334 L 61.56732293028086 890.9236680513824 L 61.72584756607237 906.1665256907979 L 46.76573110583646 906.7160125066589 L 46.12155199332423 891.4887530334101 M 1.352792420728071 906.5065295682596 L 15.676676630442467 906.816118749505 L 16.55154795453463 921.9330134221001 L 1.4771654928001319 921.0845647577091 L 1.268200690831134 906.9661432445478 M 16.302935914193394 907.1992096857857 L 31.58769258204199 906.1973734339567 L 32.03816373878676 921.2463550897158 L 17.24750979295857 920.9371348104107 L 16.61621561366146 906.0713697929232 M 31.423906863788197 906.8686516122613 L 46.90296891758408 906.6748197887305 L 46.6281208421576 921.536333932254 L 31.752255887858638 921.5341222888076 L 31.320114146660348 906.4145684312089 M 2.0268628380010725 921.0224055555573 L 15.889659027564324 921.6346710403704 L 15.772036618061003 935.8779833230826 L 1.8593632140892034 935.9904021945554 L 0.9168463369680243 921.6943093308257 M 1.9437408582100324 936.6278621737926 L 16.36808643783041 936.3219566550828 L 16.82213517758761 951.7091497366439 L 1.0830914812507577 951.4168980024663 L 1.1091882202594805 936.5550626294277 M 1.7884292961404153 951.044200189285 L 16.769069521028463 951.3383132793476 L 16.77185229867837 966.5697668702858 L 1.1696589269257354 966.5903976380432 L 1.168802491855821 951.6624020790127 M 1.5000630606705776 966.1831706427258 L 16.311228424987142 966.7434348270233 L 17.035915600128597 980.7320602465552 L 1.453529705141983 981.045158814943 L 1.0758593545578077 967.1032157355696" fill="white" stroke="black" stroke-width="1" class="fg"></path>
<path d="M 91.45869788739859 831.0506943744113 L 106.15286370293133 831.2681819209344 L 106.64249621175429 846.5203087734789 L 91.25636282943277 846.2589763934224 L 91.46930988233674 831.4009342080852 M 106.40605566075261 830.7653281981322 L 121.89505388064815 831.2911961236997 L 122.1385153246165 846.6063450837646 L 105.92439025782886 846.2143900623977 L 105.77019511503515 831.3216661713768 M 76.27232949173587 845.9870229938998 L 91.43623489610133 846.5867072025642 L 91.73769798179391 861.4564684583778 L 76.63855707661787 862.0214913006847 L 76.73322372488335 846.3918364462043 M 121.67138882266248 846.1187416159572 L 136.49261067840484 846.2436637088142 L 135.79190245166063 860.8442750132787 L 121.62740454494221 861.9389971986317 L 121.79837361351836 847.3576302705461 M 91.95061253983022 861.5376078444111 L 106.19341620681278 861.2456530112997 L 106.73879088208405 876.8302070923676 L 92.30464919154097 876.3936554618912 L 91.6350352597074 862.0487661587119 M 106.3969605248226 861.3136412295387 L 121.51426059024635 861.0419291155783 L 120.98599128489984 876.8339146038072 L 106.59154521683384 876.7461532171445 L 106.74008777999434 861.7632921007679 M 121.52744804455251 861.6423485239745 L 136.59847200021352 861.6162355471137 L 136.1377955317414 876.7812920781537 L 121.39962931628398 876.4098349413706 L 121.2649041050597 861.2821037514506 M 77.03054341598217 876.8609322798955 L 91.10973041545209 876.289996422785 L 91.04785724774501 891.5178499159766 L 76.72006335552885 891.579789902203 L 76.93099640531862 876.2958243186832 M 121.85875744021602 876.464350780944 L 136.53999891918932 876.3386974269562 L 137.41459993360422 891.6610787832001 L 121.50216621665892 891.3530343187512 L 120.74701863432202 876.6284785024814 M 76.40901497887519 891.5154625833629 L 91.13664103811654 891.4999318787865 L 91.25688185096553 906.6535458121523 L 76.60586716914639 906.3361739008336 L 76.61029215331612 891.36722061625 M 121.71826412747193 891.6309999731532 L 136.3365496533451 891.9837269876233 L 137.08949226635679 906.5921221649771 L 121.88507066473899 907.0385071417348 L 121.46501858718742 891.3135750934093 M 91.21349057609191 906.4988127138374 L 107.39361574443514 906.3945368297044 L 106.65271515668272 921.833795566451 L 91.23698525410416 921.615132475631 L 91.72400637236949 906.0055272135694 M 106.30508739287637 906.3535052208736 L 121.8362494220052 906.1569772862474 L 121.07433931000936 922.1495723415885 L 106.19975630258018 921.7456077580307 L 105.5539029435852 907.0067614560778 M 136.94206538422205 906.6473201848316 L 150.96019894783913 906.4321697090018 L 150.31390419763994 920.9773559384556 L 136.692590507247 921.8912628254684 L 135.93228418764846 906.4109220144062" fill="white" stroke="black" stroke-width="1" class="fg"></path>
<path d="M 166.46651848658593 816.079011025136 L 181.42069792919528 816.8494184317085 L 181.33592624027116 831.2978111251067 L 166.3977987161263 831.0936801165087 L 166.1052298464563 816.6746996312718 M 167.10652713372104 831.7667193161766 L 181.72971905350764 831.9800901713037 L 181.60735751976603 846.0689213287534 L 166.36107446727118 846.8464489312494 L 166.10361875820075 831.359246370624 M 150.82114980014407 846.5129933256848 L 166.93008840464867 845.5766155241106 L 166.91819195188992 860.8717150814551 L 151.98472878547852 861.3490826585075 L 151.36167427612315 846.6203640288348 M 166.86668560665433 846.248953584655 L 181.39699112842797 846.8046822308925 L 181.7342438239927 861.740057678792 L 166.41713782656726 861.1283696784262 L 166.79746343515717 846.5113053513655 M 181.05776676786454 846.5296044353979 L 197.0462928628534 846.6709176793078 L 196.35726776675378 861.3284945795908 L 181.70880021733126 860.7870959015895 L 181.28042055632977 846.5133251208817 M 195.90594199873823 846.6442070311588 L 211.3719703282806 845.8705111088167 L 211.47607570368018 861.3111204954162 L 196.60531255938233 861.1654596623476 L 196.35190525910434 845.8238967207534 M 166.45441077789235 861.448411150059 L 181.47355247309272 861.1788312135158 L 181.6303948912221 876.2788066252558 L 166.05493024604525 876.8388771165631 L 166.5463314223955 861.2737861564855 M 166.19879338943917 876.8664725452754 L 181.82364788698877 876.9614880179911 L 182.07262541191747 891.3106738355516 L 166.23948128639486 892.0966934228305 L 166.51220537813887 876.9490361169354 M 166.9689648557333 891.0912674954226 L 181.54078216041324 891.1084533607226 L 181.20409000924252 907.2106467639161 L 166.92350326964788 906.9908722876463 L 166.38276366450313 891.0293230027946 M 180.97366025966141 907.0936080134793 L 195.90262061278347 907.2111926165394 L 196.80500670202989 921.3962099844252 L 180.9364501078784 921.3606642600133 L 181.59235141493056 906.3636542152138" fill="white" stroke="black" stroke-width="1" class="fg"></path>
<path d="M 226.8448175019554 801.8900911649308 L 241.5383646074529 800.4452713489886 L 241.03237658671995 817.0113639861675 L 226.42431833332324 816.2127363180293 L 226.29602091630537 801.9966103722153 M 226.01028755199977 831.6842487268162 L 241.6493341749466 831.5149749745175 L 241.68098115283624 847.1558521404239 L 226.2965191453475 846.7316600249453 L 225.82081182432896 831.7277033191804 M 226.83911124897423 846.5205498982194 L 242.0459574144125 846.6434160309515 L 241.22314651288698 862.0059608281231 L 226.15771589523217 861.8118021781228 L 225.9693896825638 846.8136349454753 M 226.74171101595326 861.8962331353786 L 241.95052323661528 861.8997186081218 L 240.7302920279674 876.2418779730824 L 226.05375176008812 876.8467888601959 L 226.8849543235352 861.2275167117635 M 227.02653395750687 876.4282484227722 L 242.1068799373687 876.5854327240481 L 242.1639514000567 891.6406914983601 L 226.63752293107532 891.6800949729338 L 226.742607361671 876.0277805088892 M 226.60104550281918 891.2261886624018 L 241.59532356926428 891.1322585109865 L 241.98046860516473 906.2681238632649 L 225.34317701504963 906.3989515721254 L 226.09798387704453 891.5655947010179 M 226.8518193198953 906.8048462783281 L 242.07143575388102 906.1783423467136 L 241.43988317192353 921.1391323975339 L 226.30529037691434 920.6716646480653 L 226.10152576358576 906.9150532389828" fill="white" stroke="black" stroke-width="1" class="fg"></path>
<path d="M 271.3737269289608 831.3680913996426 L 286.4156278029697 831.3501666473248 L 285.5035483421974 846.6284687314447 L 271.5581166226262 846.3547553009978 L 270.84624154410335 832.1568836731719 M 286.6345243989516 831.652640632757 L 301.77511161601853 831.471955822016 L 301.6777877869147 846.389189307864 L 286.66941045350916 846.1107772930732 L 286.94298194674263 830.5623895177811 M 255.6039127780782 846.2251213117288 L 271.62251169921564 845.2235977541234 L 271.6152330818387 861.9545988516459 L 256.7157634622554 861.5953823055919 L 257.31394099591705 846.6861945006173 M 301.0135810107341 847.1006643970156 L 316.3442283677213 846.089066390578 L 316.6304900677932 861.3532893011852 L 301.716694189103 861.361907706236 L 301.13229344786936 847.0264112843673 M 256.30325953092824 861.3895927390596 L 271.3340131452685 861.5389544747151 L 271.56349281559227 876.6655797357155 L 257.38926203949785 876.3785171394267 L 256.17279329640326 861.6150391348712 M 271.053705271055 861.2773088743241 L 286.1750295366268 861.3636778323064 L 286.31364243589536 876.1955586100078 L 272.6207843980537 876.3082399798328 L 271.6468052740923 861.5888273046253 M 285.9323311165968 861.2794030961841 L 301.82028618332606 861.6335035743725 L 301.03928520099043 876.9604317158044 L 286.06978586165377 877.0714598031825 L 287.1832206178213 861.7310343484874 M 301.38240696985423 862.0284091543664 L 316.1456575466379 860.7457177419011 L 316.99949953708796 876.0140408202252 L 301.9062704596801 876.9882575171297 L 301.5405198034927 861.1347728861647 M 257.13720427372385 876.5347337093772 L 272.41581994480646 876.5838899930516 L 271.8741347798356 891.718381759635 L 256.8514539953935 891.7855953470178 L 256.1472701360072 876.4141508644757 M 256.54249021576135 890.9759538927507 L 271.43572707334886 892.0544124137796 L 271.8498336085629 906.3718177476732 L 256.7741660356472 907.1426436950336 L 256.3975645406854 891.9190111372106 M 301.66269531797866 891.4198182862492 L 316.32104490558385 891.3186585244387 L 316.99911532079216 906.9671824813456 L 302.38119289952255 906.7324498615969 L 301.98577092224525 891.9429581300582 M 271.62809775343163 905.9511787282745 L 285.95923212644595 906.0867632764035 L 287.3598503714524 921.3020944902624 L 271.27968457122194 921.4119444641892 L 271.445216579386 906.3415202524845 M 286.0782739052467 907.2993622934796 L 301.6543210832405 906.6066557425705 L 301.6234015447565 921.5625610740326 L 287.12227551519857 921.4605967862415 L 286.01183241133697 906.1417274529302" fill="white" stroke="black" stroke-width="1" class="fg"></path>
<path d="M 331.52695903996005 831.6304481861804 L 346.1584823495143 831.6398365003162 L 346.08542444290947 847.1578168802698 L 331.7531257408849 846.6775886557234 L 331.5895427478384 831.7962866791396 M 361.7476942793212 831.8965024742157 L 376.5938005777156 831.0393415922605 L 376.7254972894578 847.0723170221808 L 362.3548730571817 846.816719491901 L 361.8612092352923 831.7765577479033 M 331.0978806940254 846.590334831028 L 346.1596176080259 846.5131919027385 L 345.84052260359306 861.4323401769531 L 331.45914189926566 861.2769419677112 L 331.6250445893851 846.2940411572545 M 346.49155692743096 847.3955380877217 L 361.7232739125656 846.6980391771599 L 360.8467810992955 860.8556694148566 L 346.12781995742364 861.5605127722972 L 346.2510269423625 846.7904651514166 M 376.09731720554737 846.5621188384745 L 391.4357910921985 845.7756787878311 L 391.6855579384987 861.937927385732 L 375.90235093477986 861.9188002034502 L 376.60249305290137 846.1595432912374 M 331.8449110898786 861.242337595472 L 346.6922649897343 861.9452323524123 L 346.19674602466444 876.4436598017305 L 331.26916270786734 876.570884440624 L 331.4473254627398 861.5690910402011 M 376.14759659251024 862.1088095689958 L 391.1637803043983 861.8181762677091 L 391.189166384978 876.610331220746 L 375.78839793852677 876.4802611714236 L 376.2022276496232 862.1563754665284 M 331.46899290977257 876.6462894201856 L 346.27785415625493 876.4424732191281 L 347.0690306793576 890.9995822530375 L 332.045432039377 891.8786854429769 L 331.9836290548254 876.5589630131235 M 377.0732943984792 876.8995649864178 L 391.1655852979026 875.9905935399743 L 391.70018369359127 890.459077195955 L 376.37784577004453 891.2631022880959 L 376.42687091187275 876.0023412875926 M 332.23879079772865 891.7307899239061 L 346.6433750507219 891.6976992783227 L 346.8269678028995 907.0746520759166 L 331.06578707268807 906.9192996857105 L 332.28479864516953 891.9785587911093 M 376.7164367861038 891.9504310643465 L 390.93111424989917 891.2353320727639 L 391.46560502197894 906.2031621642269 L 376.66609786637474 906.6405517056081 L 376.1008669040235 891.5630220916607 M 331.47247172580325 906.9660650503236 L 346.4598357505331 906.4742032350385 L 346.3543475091158 921.5799870005023 L 331.77632439085414 921.0150573728174 L 331.45609770876024 906.5054768899461 M 376.5332936948931 907.2686205568905 L 391.5675947848504 906.2128498966213 L 391.3495808911938 920.9771550230953 L 376.9414223557989 921.6541143635797 L 376.1146926170294 906.859551292004" fill="white" stroke="black" stroke-width="1" class="fg"></path>
<path d="M 422.3196365992002 831.4653190045933 L 436.9066617329853 831.235825703761 L 436.59901212388985 846.4772616594645 L 421.81237557845935 846.1664879196105 L 421.35697134597063 831.0885656385278 M 436.4212122389858 831.7889154787432 L 451.6281829297218 831.4933733642632 L 452.0279760937618 846.9371955696674 L 435.7840372098253 845.8743777190649 L 436.3401735965901 831.2578412313123 M 406.6424133718883 845.8514188989062 L 421.9182843248546 847.0188733002835 L 422.10049500650126 861.6799684099353 L 407.0673802404469 861.3619166222862 L 406.2809423938005 846.638413873756 M 451.5015064356594 846.6279730014536 L 466.00379003162357 846.3295865025335 L 466.02268081139874 861.7441330022566 L 451.26238513427785 861.1154154528938 L 451.5553700403312 846.7691871208864 M 406.0411034786182 861.8852883278544 L 421.9604482969941 862.0899402725373 L 421.8839555770232 876.212627921742 L 406.2039945164523 876.3933066193639 L 406.10068846929727 861.3318506593243 M 406.94255108831106 876.8152927969883 L 421.7880387522135 876.4339607633481 L 421.78906947692354 890.5920891165731 L 405.9742453055723 891.5734199182358 L 406.4318281680091 876.4094554639203 M 406.2025953886267 891.1277560225691 L 421.9818590522847 891.8960889867506 L 421.84944049587324 906.1982452623771 L 407.45088840406004 906.6301751368951 L 406.3496061996952 891.5091549336839 M 451.64728301478215 891.9185196307737 L 466.29994558419315 891.7751569474917 L 466.32094877134057 906.2778607609476 L 451.53405211844466 906.9412183714486 L 451.5694652961996 891.6353220089194 M 421.8592874653012 906.8764078244972 L 436.5084671317205 906.4690888659369 L 436.6141039635404 921.1463492086576 L 421.2057482209813 921.2503976367906 L 421.73742418042747 906.9417121153017 M 436.5835400656035 906.4551155326803 L 450.73181061904677 905.7167960910432 L 452.12933292191275 921.5179300570794 L 436.16389697994 921.8092897352357 L 436.7050810692895 905.9740975157637" fill="white" stroke="black" stroke-width="1" class="fg"></path>
<path d="M 496.2678807239409 830.829885607779 L 511.641913782968 831.0338501634163 L 511.2074784980316 846.3162967253401 L 496.6952845463853 846.4786479977696 L 495.56656003553474 831.3307069751119 M 511.3714607103199 831.4401600970674 L 526.5589640848335 831.2714903503526 L 526.9627704131768 846.412070926176 L 511.39955002551983 846.4091915374636 L 511.6592241247455 831.4522584656834 M 481.213902703895 846.7729353480112 L 496.65297664481534 847.2392419779509 L 496.72019268011456 861.5455442355811 L 481.2029372182773 861.3866621155047 L 481.0417815387235 846.2919295990425 M 526.2463639748313 846.0302225481122 L 541.8297608613885 846.6308975967291 L 541.5861577046632 861.9090605676158 L 526.3263865426705 861.8029397928865 L 526.7258202680508 846.654139215968 M 481.1978868867634 860.7689316293682 L 496.10496281340704 860.9453090135657 L 495.8852909251896 876.5799002165122 L 481.133572112426 876.9018453080104 L 480.9083271853827 861.6109716587179 M 496.8278394027631 861.135166093496 L 512.3470371696653 861.3438336377865 L 511.6893094598414 876.0455829359461 L 496.842625727551 877.0605196457057 L 496.6637654064834 861.3234955331669 M 511.1109573710549 861.842639663613 L 526.0251779799851 861.6031300673569 L 526.3372284991719 876.4416449788737 L 511.89127353833146 876.7823151749901 L 511.5947014973834 861.6144594822581 M 526.0269976704419 861.4137014795999 L 541.2940149453964 861.3543088105473 L 542.0227792781335 876.1385641697674 L 526.5473238349151 876.7870361267242 L 526.3293691860124 861.3609648514322 M 481.25891911934957 877.0560311587419 L 496.66412078276204 876.8799989272335 L 496.9155730937068 892.020017705531 L 481.95673807644454 890.7509485002446 L 481.69962734627956 876.2098494619219 M 481.26223758208016 891.5262431066649 L 496.67425691202527 891.6411600647596 L 496.78836601392953 905.9933005333112 L 481.0952009726454 906.178314474279 L 481.4691775550796 891.985893666718 M 526.3196213780101 892.109346210032 L 541.9812777866266 890.8585184717568 L 541.2185782609083 906.591028412131 L 525.9783921745558 906.940890273575 L 526.1068733176345 891.4035854786173 M 496.869195606105 906.4588691209178 L 511.89694327335303 906.5585770417157 L 511.5125655087454 921.3929640779406 L 497.1203608590934 921.4584749969537 L 496.98113263952166 906.1682847916087 M 511.75460871119924 906.2951549799343 L 526.5362577251907 907.1729464520954 L 526.505931418807 921.3518091061436 L 511.2631547770858 921.1144455590475 L 511.7645486522657 906.3245143255813" fill="white" stroke="black" stroke-width="1" class="fg"></path></svg>
